<svg width="88" height="88" viewBox="0 0 88 88" fill="none" xmlns="http://www.w3.org/2000/svg">
<path d="M36 26C36 32.4 49.2 36 62 36C74.8 36 88 32.4 88 26C88 12.8 36 12.8 36 26Z" fill="#0051A6"/>
<path d="M85.2 35.6C78 38.8 70 40.4 62 40C54 40.4 46 38.8 38.8 35.6C38 35.2 36.8 35.6 36 36.4C36 36.8 35.6 36.8 35.6 37.2V37.6C35.6 44 48.8 47.6 61.6 47.6C74.4 47.6 87.6 44 87.6 37.6V37.2C87.6 36 86.8 35.2 85.6 35.2C85.6 35.2 85.2 35.6 85.2 35.6Z" fill="#0051A6"/>
<path d="M12 66C12 72.4 25.2 76 38 76C50.8 76 64 72.4 64 66C64 52.8 12 52.8 12 66Z" fill="#0051A6"/>
<path d="M61.2 75.6C54 78.8 46 80.4 38 80C30 80.4 22 78.8 14.8 75.6C14 75.2 12.8 75.6 12 76.4C12 76.8 12 77.2 12 77.2V77.6C12 84 25.2 87.6 38 87.6C50.8 87.6 64 84 64 77.6V77.2C64 76 63.2 75.2 62 75.2C61.6 75.6 61.2 75.6 61.2 75.6Z" fill="#0051A6"/>
<path d="M26 20C28.8 20 31.2 20 34 19.6C34.4 19.6 34.8 19.2 35.2 19.2C39.6 15.6 44.8 13.6 50 12.8C50.8 12.8 51.2 12 51.6 11.6C52 10.8 52 10.4 52 9.99998C52 -3.20002 0 -3.20002 0 9.99998C0 16.4 13.2 20 26 20Z" fill="#0051A6"/>
<path d="M26 32C27.6 32 29.2 32 30.8 32C32 32 32.8 30.8 32.8 30V29.6C32 28 32 27.2 32 25.6C32 25.2 31.6 24.4 31.2 24C30.8 24 30.4 23.6 30 23.6H26C18 24 10 22.4 2.8 19.2C1.6 18.8 0.8 19.6 0 20.4C0 20.8 0 20.8 0 21.2V22C0 28.4 13.2 32 26 32Z" fill="#0051A6"/>
<path d="M26 44C27.6 44 29.2 44 30.8 44C32 44 32.8 42.8 32.8 42V41.6C32 40 32 39.2 32 37.6C32 37.2 31.6 36.4 31.2 36C30.8 36 30.4 36 30 36H26C18 36.4 10 34.8 2.8 31.6C2 31.2 0.8 31.6 0 32.4C0 32.8 0 32.8 0 33.2V33.6C0 40.4 13.2 44 26 44Z" fill="#0051A6"/>
<path d="M85.2 59.6C80.4 62 75.2 63.2 70 63.6C68.8 64 68 64.8 68 66C68 67.2 68 68 67.6 68.8C67.2 70 68 70.8 68.8 71.2C69.2 71.2 69.2 71.2 69.6 71.2C81.2 70 88 66.4 88 61.6V61.2C88 60 87.2 59.2 86 59.2C85.6 59.2 85.2 59.6 85.2 59.6Z" fill="#0051A6"/>
<path d="M38 52H39.2C40.4 52 41.2 51.6 41.6 50.4C42 49.2 41.2 48 40 48H39.6L38.8 47.6C38 47.2 36.8 47.6 36 48.4C36 48.8 35.6 48.8 35.6 49.2V49.6C35.6 51.2 36.8 52 38 52Z" fill="#0051A6"/>
<path d="M85.2 47.6C78 50.8 70 52.4 62 52H60.8C60 52 59.2 52.8 58.8 53.6C58.8 54.4 59.2 55.6 60 56C62 56.8 63.6 58 65.2 59.6C65.6 60 66 60 66.8 60C76.8 59.2 88 56.4 88 50V49.6C88 48.4 87.2 47.6 86 47.6C85.6 47.6 85.2 47.6 85.2 47.6Z" fill="#0051A6"/>
<path d="M16.8 55.2C17.2 55.2 17.2 55.2 17.6 55.2C21.6 53.6 26 52.8 30.4 52.4C31.2 52 32 51.2 32 50C32 48.8 31.2 48 30 48H26C18 48.4 10 46.8 2.8 43.6C2 43.2 0.8 43.6 0 44.4C0 44.4 0 44.8 0 45.2V45.6C0 50.4 6 53.6 16.8 55.2Z" fill="#0051A6"/>
</svg>
