<svg width="72" height="73" viewBox="0 0 72 73" fill="none" xmlns="http://www.w3.org/2000/svg">
<path d="M66.24 48.24C61.8786 48.2493 57.5438 47.5606 53.4 46.2C51.4155 45.557 49.2388 46.0137 47.68 47.4L39.68 53.52C31.0251 49.1927 24.0073 42.1749 19.68 33.52L25.6 25.52C27.1377 23.9812 27.6926 21.7153 27.04 19.64C25.6801 15.4961 24.9914 11.1614 25 6.80004C25.0009 5.22649 24.3625 3.7201 23.2311 2.62645C22.0998 1.53281 20.5726 0.945775 19 1.00004H5.76C2.58791 1.02184 0.021802 3.58795 0 6.76004C0.0220659 43.3342 29.6658 72.978 66.24 73C69.4121 72.9782 71.9782 70.4121 72 67.24V54.04C72.0001 50.8523 69.4276 48.262 66.24 48.24Z" fill="#0051A6"/>
</svg>
