<svg width="72" height="72" viewBox="0 0 72 72" fill="none" xmlns="http://www.w3.org/2000/svg">
<circle cx="62" cy="51" r="1.5" stroke="#F3AC1A" stroke-width="3" stroke-linecap="round" stroke-linejoin="round"/>
<path fill-rule="evenodd" clip-rule="evenodd" d="M60.5 43.5C57.45 43.5063 54.6108 45.057 52.9569 47.6196C51.303 50.1822 51.0595 53.4081 52.31 56.19L42.5 66V70.5H47L56.81 60.69C60.1618 62.217 64.1057 61.5476 66.7659 59.0002C69.4261 56.4528 70.2657 52.5416 68.8853 49.1269C67.5049 45.7121 64.1832 43.4831 60.5 43.5Z" stroke="#F3AC1A" stroke-width="3" stroke-linecap="round" stroke-linejoin="round"/>
<path d="M60.5 43.5V33.5C60.5 32.3954 61.3954 31.5 62.5 31.5H64.152C66.0018 31.5 66.8603 29.2046 65.4644 27.9908L36.3124 2.64118C35.5598 1.9868 34.4402 1.98679 33.6876 2.64118L4.53559 27.9908C3.13974 29.2046 3.99817 31.5 5.84795 31.5H7.5C8.60457 31.5 9.5 32.3954 9.5 33.5V62.5C9.5 63.6046 10.3954 64.5 11.5 64.5H22.5C23.6046 64.5 24.5 63.6046 24.5 62.5V36.5C24.5 35.3954 25.3954 34.5 26.5 34.5H43.5C44.6046 34.5 45.5 35.3954 45.5 36.5V63" stroke="#F3AC1A" stroke-width="3" stroke-linecap="round" stroke-linejoin="round"/>
</svg>
