<svg width="24" height="24" viewBox="0 0 24 24" fill="none" xmlns="http://www.w3.org/2000/svg">
<circle cx="13" cy="6" r="1" fill="#0051A6"/>
<circle cx="11" cy="8.5" r="1" fill="#0051A6"/>
<circle cx="15" cy="8.5" r="1" fill="#0051A6"/>
<circle cx="13" cy="11" r="1" fill="#0051A6"/>
<circle cx="9" cy="11" r="1" fill="#0051A6"/>
<circle cx="17" cy="11" r="1" fill="#0051A6"/>
<path fill-rule="evenodd" clip-rule="evenodd" d="M22 14H24V16H22V17C22 18.89 20.679 20.469 18.914 20.885L20.5 23H18L16.5 21H7.5L6 23H3.5L5.086 20.885C3.321 20.469 2 18.89 2 17V16H0V14H20V4C20 3.449 19.551 3 19 3H14V4H12V1H19C20.654 1 22 2.346 22 4V14ZM18 19C19.103 19 20 18.103 20 17V16H4V17C4 18.103 4.897 19 6 19H18Z" fill="#0051A6"/>
</svg>
