<svg width="19" height="20" viewBox="0 0 19 20" fill="none" xmlns="http://www.w3.org/2000/svg">
<path fill-rule="evenodd" clip-rule="evenodd" d="M9.22133 0.78418C14.3141 0.78418 18.4427 4.91271 18.4427 10.0055C18.4427 13.7936 16.1585 17.0482 12.8923 18.4672C12.3672 17.047 11.0011 16.0348 9.39867 16.0348C7.7484 16.0348 6.34885 17.1083 5.86014 18.595C2.42951 17.2516 0 13.9123 0 10.0055C0 4.91271 4.12853 0.78418 9.22133 0.78418Z" fill="#CBD0D8"/>
<path d="M9.46251 0.759011V4.62133C9.1903 4.60542 8.91917 4.57464 8.65032 4.52912C7.77188 4.28918 6.96176 3.84707 6.28469 3.23813C5.72787 2.78416 5.22069 2.2628 4.64259 1.81946C3.54667 1.00728 2.43656 0.954078 1.31581 1.7769C1.31581 1.7769 1.31581 1.7769 1.28389 1.7769C1.5883 1.15591 2.08617 0.650579 2.70256 0.336958C3.36088 0.0443929 4.10001 -0.0119814 4.79509 0.177358C4.99803 0.182318 5.18912 0.27399 5.32 0.429171C5.36668 0.480019 5.43784 0.500547 5.50443 0.482371C5.6375 0.424104 5.79193 0.444603 5.9052 0.535571C6.60331 0.908569 7.40226 1.04897 8.18571 0.936345C8.60776 0.890238 9.02272 0.812211 9.45896 0.744825" fill="#979BA2"/>
<path d="M18.6874 15.0131V15.0415C18.6874 15.0415 18.6874 15.0628 18.6874 15.077C18.6832 15.1125 18.6736 15.1472 18.659 15.1798C18.6447 15.2113 18.6269 15.241 18.6058 15.2685C17.3646 17.2895 15.4962 18.849 13.2858 19.7089H13.261C13.2135 19.7275 13.163 19.7371 13.112 19.7373C12.9138 19.7374 12.7417 19.6006 12.6971 19.4074C12.6953 19.3779 12.6953 19.3483 12.6971 19.3188C12.5046 17.6163 11.0604 16.3323 9.3471 16.3405C7.63382 16.3487 6.20194 17.6465 6.02579 19.3507C6.02579 19.3507 6.02579 19.372 6.02579 19.3862C6.00404 19.5274 5.91177 19.6477 5.78107 19.7054H5.75624C5.70877 19.724 5.65826 19.7336 5.60728 19.7337C5.57321 19.7392 5.5385 19.7392 5.50443 19.7337L5.38739 19.6876C3.18248 18.8303 1.31809 17.276 0.0780269 15.2614C0.0419784 15.216 0.0176226 15.1624 0.00709361 15.1053C0.00534115 15.0758 0.00534115 15.0462 0.00709361 15.0167C0.00117624 14.8442 0.10091 14.6854 0.258907 14.6159C0.510391 14.5607 0.742111 14.4381 0.929227 14.2612C1.07109 14.0484 0.96824 13.6725 0.971787 13.3675C0.971787 12.9667 0.971787 12.5624 0.971787 12.1616C0.979179 12.0673 1.03039 11.982 1.11011 11.9311C2.17411 11.3955 3.26648 10.8671 4.34467 10.3457C4.36458 10.3419 4.38505 10.3419 4.40496 10.3457V12.8C4.40496 12.8851 4.37659 12.9915 4.43688 13.0447L4.68869 12.9419L6.46203 11.9346C6.46203 10.5798 6.44311 9.22496 6.40528 7.87014C6.37577 7.68231 6.48472 7.50023 6.66419 7.43744C7.48701 7.05795 8.2992 6.65363 9.12203 6.27414C9.24731 6.22438 9.38688 6.22438 9.51216 6.27414C10.3705 6.66782 11.2146 7.08632 12.0693 7.48355C12.2395 7.56158 12.2502 7.67507 12.2502 7.83822C12.2502 9.17531 12.2218 10.5124 12.197 11.8495C12.1698 12.0042 12.2605 12.1554 12.4098 12.2042C13.0021 12.4843 13.5837 12.7858 14.2044 13.0979V10.2819L15.882 11.0905C16.4211 11.353 16.946 11.6225 17.4993 11.8779C17.6365 11.9199 17.7234 12.0548 17.705 12.1971C17.705 12.8284 17.705 13.4561 17.705 14.0874C17.703 14.185 17.7462 14.2779 17.822 14.3393L18.4427 14.6159C18.596 14.6878 18.6921 14.8438 18.6874 15.0131Z" fill="#979BA2"/>
</svg>
