<svg width="38" height="40" viewBox="0 0 38 40" fill="none" xmlns="http://www.w3.org/2000/svg">
<path fill-rule="evenodd" clip-rule="evenodd" d="M18.2963 2.11108C28.4011 2.11108 36.5926 10.3026 36.5926 20.4074C36.5926 27.9235 32.0605 34.3811 25.58 37.1964C24.5381 34.3786 21.8277 32.3703 18.6481 32.3703C15.3738 32.3703 12.5969 34.5002 11.6273 37.45C4.82045 34.7846 0 28.1589 0 20.4074C0 10.3026 8.19153 2.11108 18.2963 2.11108Z" fill="#CBE1F8"/>
<path d="M18.7748 2.06185V9.72519C18.2347 9.69362 17.6968 9.63254 17.1633 9.54222C15.4204 9.06616 13.813 8.18896 12.4696 6.98074C11.3648 6.08 10.3585 5.04556 9.21148 4.16593C7.03704 2.55445 4.83444 2.44889 2.61074 4.08148C2.61074 4.08148 2.61074 4.08148 2.54741 4.08148C3.15139 2.84935 4.13922 1.84671 5.36222 1.22445C6.66842 0.64396 8.13495 0.532107 9.51407 0.90778C9.91673 0.917622 10.2959 1.09951 10.5556 1.40741C10.6482 1.5083 10.7894 1.54903 10.9215 1.51297C11.1855 1.39735 11.4919 1.43803 11.7167 1.61852C13.1018 2.35859 14.687 2.63718 16.2415 2.41371C17.0789 2.32222 17.9022 2.16741 18.7678 2.03371" fill="#0051A6"/>
<path d="M37.0781 30.3437V30.4C37.0781 30.4 37.0781 30.4422 37.0781 30.4704C37.0698 30.5409 37.0508 30.6097 37.0219 30.6745C36.9935 30.7369 36.9581 30.796 36.9163 30.8504C34.4535 34.8604 30.7464 37.9546 26.3607 39.6608H26.3115C26.2173 39.6977 26.1171 39.7168 26.0159 39.7171C25.6225 39.7173 25.2811 39.4459 25.1926 39.0626C25.1891 39.004 25.1891 38.9453 25.1926 38.8867C24.8107 35.5088 21.9452 32.9612 18.5458 32.9775C15.1465 32.9938 12.3054 35.5686 11.9559 38.95C11.9559 38.95 11.9559 38.9922 11.9559 39.0204C11.9128 39.3005 11.7297 39.5393 11.4704 39.6537H11.4211C11.3269 39.6906 11.2267 39.7097 11.1256 39.71C11.058 39.7208 10.9891 39.7208 10.9215 39.71L10.6893 39.6185C6.31445 37.9175 2.61526 34.8336 0.154816 30.8363C0.0832907 30.7462 0.0349657 30.6399 0.0140748 30.5267C0.0105977 30.4681 0.0105977 30.4094 0.0140748 30.3508C0.00233399 30.0085 0.200218 29.6935 0.513704 29.5556C1.01268 29.446 1.47244 29.2028 1.8437 28.8519C2.12519 28.4297 1.92111 27.6837 1.92815 27.0785C1.92815 26.2834 1.92815 25.4811 1.92815 24.6859C1.94282 24.4989 2.04443 24.3295 2.20259 24.2285C4.3137 23.1659 6.48111 22.1174 8.62037 21.083C8.65989 21.0754 8.70049 21.0754 8.74 21.083V25.9526C8.74 26.1215 8.6837 26.3326 8.80333 26.4382L9.30296 26.2341L12.8215 24.2356C12.8215 21.5474 12.784 18.8593 12.7089 16.1711C12.6503 15.7985 12.8665 15.4372 13.2226 15.3126C14.8552 14.5597 16.4667 13.7574 18.0993 13.0045C18.3478 12.9057 18.6248 12.9057 18.8733 13.0045C20.5763 13.7856 22.2511 14.6159 23.947 15.4041C24.2848 15.5589 24.3059 15.7841 24.3059 16.1078C24.3059 18.7608 24.2496 21.4137 24.2004 24.0667C24.1464 24.3736 24.3264 24.6735 24.6226 24.7704C25.7978 25.3263 26.9519 25.9245 28.1833 26.5437V20.9563L31.5119 22.5608C32.5815 23.0815 33.623 23.6163 34.7207 24.123C34.993 24.2064 35.1654 24.4739 35.1289 24.7563C35.1289 26.0089 35.1289 27.2545 35.1289 28.5071C35.125 28.7005 35.2107 28.885 35.3611 29.0067L36.5926 29.5556C36.8969 29.6983 37.0875 30.0078 37.0781 30.3437Z" fill="#0051A6"/>
</svg>
