<svg width="56" height="6" viewBox="0 0 56 6" fill="none" xmlns="http://www.w3.org/2000/svg">
<path fill-rule="evenodd" clip-rule="evenodd" d="M6 3C6 4.65685 4.65685 6 3 6C1.34315 6 0 4.65685 0 3C0 1.34315 1.34315 0 3 0C4.65685 0 6 1.34315 6 3ZM56 3C56 4.65685 54.6569 6 53 6C51.3431 6 50 4.65685 50 3C50 1.34315 51.3431 0 53 0C54.6569 0 56 1.34315 56 3ZM16 5C17.1046 5 18 4.10457 18 3C18 1.89543 17.1046 1 16 1C14.8954 1 14 1.89543 14 3C14 4.10457 14.8954 5 16 5ZM30 3C30 4.10457 29.1046 5 28 5C26.8954 5 26 4.10457 26 3C26 1.89543 26.8954 1 28 1C29.1046 1 30 1.89543 30 3ZM40 5C41.1046 5 42 4.10457 42 3C42 1.89543 41.1046 1 40 1C38.8954 1 38 1.89543 38 3C38 4.10457 38.8954 5 40 5Z" fill="#EBEDF1"/>
</svg>
