<svg width="87" height="87" viewBox="0 0 87 87" fill="none" xmlns="http://www.w3.org/2000/svg">
<path d="M40.2 22.4C39.4889 21.8667 38.5111 21.8667 37.8 22.4L21.8 34.4C21.1113 34.9165 20.8304 35.8158 21.1026 36.6325C21.3749 37.4491 22.1391 38 23 38H25V52C25 53.1046 25.8954 54 27 54H35C36.1046 54 37 53.1046 37 52V42H41V52C41 53.1046 41.8954 54 43 54H51C52.1046 54 53 53.1046 53 52V38H55C55.8609 38 56.6251 37.4491 56.8974 36.6325C57.1696 35.8158 56.8887 34.9165 56.2 34.4L40.2 22.4Z" fill="#0051A6"/>
<path fill-rule="evenodd" clip-rule="evenodd" d="M68.4 62.7601L86.4 80.7601C87.1735 81.5268 87.1913 82.7715 86.44 83.5601L83.6 86.4001C83.2245 86.7787 82.7133 86.9917 82.18 86.9917C81.6467 86.9917 81.1355 86.7787 80.76 86.4001L62.76 68.4001C47.0163 81.1438 24.0517 79.3329 10.4999 64.2791C-3.05182 49.2254 -2.44764 26.1973 11.8748 11.8749C26.1973 -2.44758 49.2253 -3.05175 64.2791 10.5C79.3329 24.0517 81.1437 47.0164 68.4 62.7601ZM9 39.0001C9 55.5686 22.4315 69.0001 39 69.0001C55.5594 68.978 68.978 55.5595 69 39.0001C69 22.4315 55.5685 9.00006 39 9.00006C22.4315 9.00006 9 22.4315 9 39.0001Z" fill="#0051A6"/>
</svg>
