<svg width="72" height="73" viewBox="0 0 72 73" fill="none" xmlns="http://www.w3.org/2000/svg">
<circle cx="54.7828" cy="55.7826" r="15.2174" stroke="#F3AC1A" stroke-width="3.04348" stroke-linecap="round" stroke-linejoin="round"/>
<path d="M57.8262 49.6957H54.7827C53.1019 49.6957 51.7393 51.0583 51.7393 52.7392V52.7392C51.7393 54.42 53.1019 55.7826 54.7827 55.7826V55.7826C56.4636 55.7826 57.8262 57.1452 57.8262 58.8261V58.8261C57.8262 60.507 56.4636 61.8696 54.7827 61.8696H51.7393" stroke="#F3AC1A" stroke-width="3.04348" stroke-linecap="round" stroke-linejoin="round"/>
<path d="M54.7825 49.6957V48.174" stroke="#F3AC1A" stroke-width="3.04348" stroke-linecap="round" stroke-linejoin="round"/>
<path d="M54.7825 61.8695V63.3913" stroke="#F3AC1A" stroke-width="3.04348" stroke-linecap="round" stroke-linejoin="round"/>
<path d="M60.8696 41.8435V33.4348C60.8696 32.3302 61.765 31.4348 62.8696 31.4348H64.652C66.5018 31.4348 67.3603 29.1394 65.9644 27.9256L36.3124 2.14118C35.5598 1.4868 34.4402 1.4868 33.6876 2.14118L4.03559 27.9256C2.63974 29.1394 3.49817 31.4348 5.34795 31.4348H7.13043C8.235 31.4348 9.13043 32.3302 9.13043 33.4348V62.913C9.13043 64.0176 10.0259 64.913 11.1304 64.913H22.3478C23.4524 64.913 24.3478 64.0176 24.3478 62.913V36.4783C24.3478 35.3737 25.2433 34.4783 26.3478 34.4783H43.6522C44.7567 34.4783 45.6522 35.3737 45.6522 36.4783V43.6696" stroke="#F3AC1A" stroke-width="3.04348" stroke-linecap="round" stroke-linejoin="round"/>
</svg>
