<svg width="23" height="23" viewBox="0 0 23 23" fill="none" xmlns="http://www.w3.org/2000/svg">
<path fill-rule="evenodd" clip-rule="evenodd" d="M17.85 16.44L22.85 21.44C23.0433 21.6316 23.0478 21.9428 22.86 22.14L22.15 22.85C22.0561 22.9446 21.9283 22.9979 21.795 22.9979C21.6616 22.9979 21.5338 22.9446 21.44 22.85L16.44 17.85C12.504 21.0359 6.76287 20.5832 3.37493 16.8197C-0.0129995 13.0563 0.138043 7.29928 3.71866 3.71866C7.29928 0.138043 13.0563 -0.0129995 16.8197 3.37493C20.5832 6.76287 21.0359 12.504 17.85 16.44ZM2.99995 10.5C2.99995 14.6421 6.35782 18 10.5 18C14.6398 17.9944 17.9944 14.6398 18 10.5C18 6.35782 14.6421 2.99995 10.5 2.99995C6.35782 2.99995 2.99995 6.35782 2.99995 10.5Z" fill="#303C42"/>
</svg>
