<svg width="92" height="53" viewBox="0 0 92 53" fill="none" xmlns="http://www.w3.org/2000/svg">
<circle cx="46" cy="13.125" r="11.25" stroke="#F3AC1A" stroke-width="3.75" stroke-linecap="round" stroke-linejoin="round"/>
<path fill-rule="evenodd" clip-rule="evenodd" d="M46.0002 31.875C39.2624 32.0603 32.6614 33.8197 26.7252 37.0125C23.5825 38.6324 21.6126 41.8769 21.6252 45.4125V47.1375C21.6152 48.0689 21.9782 48.9656 22.6333 49.6278C23.2884 50.29 24.1812 50.6626 25.1127 50.6625H66.8877C67.8192 50.6626 68.712 50.29 69.3671 49.6278C70.0222 48.9656 70.3852 48.0689 70.3752 47.1375V45.4125C70.3737 41.8903 68.4059 38.6637 65.2752 37.05C59.3422 33.8442 52.7411 32.0719 46.0002 31.875V31.875Z" stroke="#F3AC1A" stroke-width="3.75" stroke-linecap="round" stroke-linejoin="round"/>
<circle cx="17.875" cy="9.375" r="7.5" stroke="#F3AC1A" stroke-width="3.75" stroke-linecap="round" stroke-linejoin="round"/>
<path d="M32.5 34.4625C32.7386 34.0657 32.868 33.6129 32.875 33.15V31.95C32.8798 29.6429 31.706 27.4932 29.7625 26.25C26.1957 23.9829 22.0971 22.69 17.875 22.5C13.653 22.69 9.55436 23.9829 5.98753 26.25C4.04412 27.4932 2.87027 29.6429 2.87503 31.95V33.15C2.78891 34.4214 3.74218 35.5252 5.01253 35.625H29.65" stroke="#F3AC1A" stroke-width="3.75" stroke-linecap="round" stroke-linejoin="round"/>
<circle cx="74.125" cy="9.375" r="7.5" stroke="#F3AC1A" stroke-width="3.75" stroke-linecap="round" stroke-linejoin="round"/>
<path d="M59.5 34.4625C59.2615 34.0657 59.1321 33.6129 59.125 33.15V31.95C59.1202 29.6429 60.2941 27.4932 62.2375 26.25C65.8043 23.9829 69.9029 22.69 74.125 22.5C78.3471 22.69 82.4457 23.9829 86.0125 26.25C88.0016 27.5215 89.1819 29.7399 89.125 32.1V33.3C89.2111 34.5714 88.2579 35.6751 86.9875 35.775H62.35" stroke="#F3AC1A" stroke-width="3.75" stroke-linecap="round" stroke-linejoin="round"/>
</svg>
